<?xml version="1.0" encoding="UTF-8"?>
<svg xmlns="http://www.w3.org/2000/svg" width="179" height="40" viewBox="0 0 179 40" fill="none">
  <g id="Logo" clip-path="url(#clip0_762_2003)">
    <g id="Layer 1">
      <g id="Group">
        <path id="Vector" d="M26.389 18.1923L26.066 18.0064C23.2747 16.4815 19.7827 16.3993 16.8191 18.0866C16.8015 18.0964 16.735 18.1356 16.7193 18.1453C13.7773 19.8679 12.1017 22.9332 12.0273 26.114V31.8708H18.9566V22.8099C18.9566 22.4067 19.3931 22.1561 19.7416 22.3577L27.5889 26.8892L31.0535 20.8897L26.3929 18.1982L26.389 18.1923Z" fill="#F7003B"></path>
        <path id="Vector_2" d="M8.12528 24.2251L8.44825 24.0391C11.1652 22.3832 12.9816 19.4 13.0032 15.9922C13.0032 15.9726 13.0032 15.8962 13.0032 15.8767C12.9816 12.4668 11.1652 9.48372 8.44825 7.82969L8.12136 7.63982L3.46464 4.95032L0 10.9498L7.84732 15.4813C8.19574 15.6829 8.19574 16.1859 7.84732 16.3876L0 20.917L3.46464 26.9165L8.12528 24.2251Z" fill="#F7003B"></path>
        <path id="Vector_3" d="M12.0371 5.38292V5.75679C12.1135 8.93761 13.7871 12.0029 16.7291 13.7255C16.7467 13.7353 16.8132 13.7744 16.8289 13.7842C19.7924 15.4715 23.2845 15.3893 26.0758 13.8644L26.4027 13.6746L31.0594 10.9851L27.5947 4.98556L19.7474 9.517C19.399 9.71862 18.9625 9.46611 18.9625 9.06484V0H12.0332V5.38292H12.0371Z" fill="#F7003B"></path>
        <path id="Vector_4" d="M60.0311 22.759C60.0311 27.7309 55.8637 31.0722 49.6606 31.0722C44.861 31.0722 40.1143 28.3103 40.0692 28.2985L39.9479 28.2554L39.9029 21.1852H40.9931L41.0342 21.3085C42.6178 25.9887 45.503 29.2048 49.5745 29.2048C52.5498 29.2048 54.3232 27.7778 54.3232 25.3819C54.3232 22.1248 50.9251 20.9366 47.5897 19.3961C43.7609 17.6286 39.6719 15.3599 39.6719 10.1884C39.6719 5.01689 43.342 1.91437 49.4903 1.91437C53.4345 1.91437 57.6215 3.15733 57.6665 3.17299L57.7976 3.21018V10.2021H56.6682L56.6291 10.0788C55.1884 5.78616 52.9608 3.78567 49.6176 3.78567C47.0298 3.78567 45.4208 5.2185 45.4208 7.52044C45.4208 10.7502 48.5782 11.7015 51.9195 13.2929C55.7208 15.1074 60.0311 17.7167 60.0311 22.757" fill="#020F30"></path>
        <path id="Vector_5" d="M130.672 33.3545C130.987 33.3545 131.202 33.0335 131.083 32.7419L122.989 12.9895C122.623 12.1615 122.441 11.8816 121.043 11.4705L120.908 11.4294V10.0749H131.862V11.5977C129.756 11.8463 129.566 11.9422 129.433 12.4727C129.343 12.8368 129.513 13.1382 129.676 13.6374L134.25 25.3584L138.286 14.2187C138.488 13.6785 138.609 13.3868 138.609 13.013C138.609 12.0988 137.961 11.8483 135.896 11.5997V10.0807H142.806V11.4314L142.671 11.4725C141.301 11.8757 141.068 12.1341 140.727 12.9836L132.645 33.9887C131.181 37.6432 127.691 40.0019 123.756 40.0019L123.222 39.998V33.3545H130.676H130.672Z" fill="#020F30"></path>
        <path id="Vector_6" d="M157.602 27.4392C157.602 28.9033 157.131 28.9797 155.682 29.0697V30.436H165.984V29.0697C164.536 28.9679 164.062 28.8975 164.062 27.447L164.058 15.1348V14.6709L164.091 14.6415C165.144 13.8292 166.158 13.4162 167.112 13.4162C169.186 13.4162 170.075 14.894 170.075 18.3607L170.081 27.4372C170.081 28.9014 169.609 28.9777 168.161 29.0678V30.4341H178.463V29.0678C177.014 28.966 176.541 28.8955 176.541 27.4451L176.533 15.7945C176.533 11.725 174.444 9.39172 170.803 9.39172C167.487 9.39172 165.146 11.6212 164.044 12.9503L163.878 13.1519V9.89478H155.443V11.3002C157.125 11.4079 157.6 11.4392 157.6 12.9014L157.604 27.4372L157.602 27.4392Z" fill="#020F30"></path>
        <path id="Vector_7" d="M144.727 5.747C144.727 4.28284 144.255 4.2065 142.807 4.11842V2.75214H153.535V4.11842C152.087 4.22021 151.613 4.29067 151.613 5.74113V27.447C151.613 28.8975 152.087 28.966 153.535 29.0697V30.436H142.807V29.0697C144.255 28.9816 144.727 28.9033 144.727 27.4392V5.747Z" fill="#020F30"></path>
        <path id="Vector_8" d="M112.244 25.748L112.208 25.7774C111.036 26.6543 110.053 27.0458 109.012 27.0458C106.446 27.0458 105.146 24.6734 105.146 19.9853C105.146 14.1933 106.358 11.2533 108.744 11.2533C111.13 11.2533 112.246 13.608 112.246 18.4527V25.748H112.244ZM118.691 27.5292V0.939575H110.349V2.30586C111.797 2.39394 112.269 2.47224 112.269 3.93444V9.77735L112.244 9.7382L112.126 9.7108C111.208 9.49744 110.141 9.38391 108.967 9.38391C106.914 9.38391 103.971 9.84978 101.613 12.0441C99.3989 14.1033 98.2793 17.1529 98.2793 21.105C98.2793 29.7764 102.887 31.0683 105.633 31.0683C109.255 31.0683 111.506 28.9758 112.525 27.7289L112.686 27.5332V30.4458H120.612V29.148C119.163 29.0463 118.689 28.9758 118.689 27.5253" fill="#020F30"></path>
        <path id="Vector_9" d="M76.119 12.9033V24.6675C76.119 25.2273 76.1601 25.7597 76.2326 26.251C76.7023 29.3594 78.6167 31.0702 81.6253 31.0702C84.9177 31.0702 87.2724 28.8583 88.3882 27.5429L88.5546 27.3452V30.618H96.9891V29.2107C94.8829 29.2107 94.834 27.7935 94.834 24.3288V10.0435H86.4542V11.4098C87.9027 11.4979 88.3745 11.5742 88.3745 13.0404V25.748L88.3353 25.7754C87.2235 26.6425 86.2663 27.0438 85.317 27.0438C82.8878 27.0438 82.5805 24.4013 82.5805 22.0993V10.0631H69.0136V9.96916C69.0292 8.75947 69.0175 7.78272 69.0077 6.91949V6.89992C68.9979 6.06214 68.9881 5.34964 69.0116 4.67237L69.0155 4.47662H67.7647L67.7119 4.57449C65.8347 7.96671 63.5484 9.89674 60.303 10.8363L60.168 10.8735V11.5664H62.5051V24.4365C62.4797 27.0536 62.9495 28.7585 63.9791 29.7998C64.8266 30.6533 66.0716 31.0663 67.7863 31.0663C70.2898 31.0663 72.6524 29.8781 74.1088 27.8855L74.1753 27.7915L73.731 26.9029L73.5705 26.9694C73.0987 27.1593 72.49 27.357 71.2548 27.357C69.5675 27.357 68.9686 26.2647 68.9686 23.1779V11.4353C74.8956 11.5194 76.119 11.6017 76.119 12.8994" fill="#020F30"></path>
      </g>
    </g>
  </g>
  <defs>
    <clipPath id="clip0_762_2003">
      <rect width="178.462" height="40" fill="white"></rect>
    </clipPath>
  </defs>
</svg>
